<?xml version="1.0" standalone="no"?>
<!DOCTYPE svg PUBLIC "-//W3C//DTD SVG 20010904//EN"
 "http://www.w3.org/TR/2001/REC-SVG-20010904/DTD/svg10.dtd">
<svg version="1.0" xmlns="http://www.w3.org/2000/svg"
 width="2560.000000pt" height="746.000000pt" viewBox="0 0 2560.000000 746.000000"
 preserveAspectRatio="xMidYMid meet">
<metadata>
Created by potrace 1.16, written by Peter Selinger 2001-2019
</metadata>
<g transform="translate(0.000000,746.000000) scale(0.100000,-0.100000)"
fill="#000000" stroke="none">
<path d="M4108 7163 l-448 -3 -2 -2523 -3 -2522 -27 -97 c-97 -353 -351 -624
-683 -731 -316 -102 -637 -55 -916 134 -63 42 -229 201 -229 218 0 5 -16 33
-36 62 -56 82 -112 209 -141 317 -23 85 -26 117 -26 252 0 136 3 167 26 255
105 392 430 691 829 761 140 25 364 10 471 -31 16 -7 17 27 17 628 l0 635 -87
8 c-416 37 -861 -47 -1232 -232 -927 -461 -1419 -1469 -1215 -2484 102 -501
404 -999 799 -1315 298 -239 639 -393 1035 -467 137 -25 482 -36 631 -19 893
102 1627 694 1910 1541 41 125 71 250 96 405 15 87 17 270 22 1447 l6 1347 90
-58 c318 -207 679 -352 1044 -421 153 -29 350 -50 468 -50 l103 0 0 614 0 613
-97 7 c-411 29 -733 156 -1030 408 -81 69 -96 84 -197 208 -171 208 -296 463
-357 728 -12 53 -22 143 -26 230 l-6 142 -171 -2 c-94 -2 -372 -4 -618 -5z"/>
<path d="M7930 4860 l0 -410 480 0 480 0 0 -1555 0 -1555 480 0 480 0 0 1545
0 1545 392 2 391 3 99 310 c54 171 114 358 132 418 l34 107 -1484 0 -1484 0 0
-410z"/>
<path d="M11388 5251 c-146 -47 -261 -166 -303 -315 -13 -43 -16 -85 -13 -155
3 -86 7 -105 41 -174 139 -294 527 -359 759 -127 177 178 180 462 6 646 -62
65 -115 99 -199 125 -80 25 -213 25 -291 0z"/>
<path d="M12400 3305 l0 -1965 470 0 470 0 0 508 0 508 141 128 c118 108 143
127 153 115 7 -8 212 -299 455 -646 l442 -633 505 0 c277 0 504 2 504 5 0 3
-292 428 -650 945 -357 516 -650 943 -650 948 0 5 264 265 586 578 l585 569
-571 3 -572 2 -462 -454 -461 -454 -3 904 -2 904 -470 0 -470 0 0 -1965z"/>
<path d="M15750 4860 l0 -410 480 0 480 0 0 -1555 0 -1555 480 0 480 0 0 1545
0 1545 392 2 392 3 108 340 c59 187 119 375 132 418 l24 77 -1484 0 -1484 0 0
-410z"/>
<path d="M22460 3305 l0 -1965 475 0 475 0 0 509 0 510 136 125 c75 69 139
126 143 125 3 0 209 -290 456 -644 l450 -645 504 0 c444 0 502 2 497 15 -3 8
-294 432 -647 943 -353 510 -642 932 -643 937 -1 6 262 267 583 580 l585 570
-574 3 -575 2 -457 -457 -458 -458 0 908 0 907 -475 0 -475 0 0 -1965z"/>
<path d="M20120 4539 c-348 -37 -654 -168 -919 -393 -255 -216 -452 -548 -521
-880 -150 -717 194 -1431 850 -1765 262 -134 492 -181 878 -181 306 0 449 19
648 85 547 182 952 639 1075 1215 30 138 33 454 6 595 -131 689 -666 1208
-1358 1315 -96 15 -549 21 -659 9z m355 -853 c90 -24 232 -98 307 -160 116
-96 214 -247 254 -391 24 -88 29 -264 11 -352 -78 -366 -394 -623 -767 -623
-199 0 -385 72 -525 202 -173 162 -255 343 -255 565 0 174 46 320 145 458 112
157 307 280 499 315 71 13 259 5 331 -14z"/>
<path d="M11070 2680 l0 -1340 470 0 470 0 0 1340 0 1340 -470 0 -470 0 0
-1340z"/>
</g>
</svg>
